<svg width="46" height="30" viewBox="0 0 46 30" fill="none" xmlns="http://www.w3.org/2000/svg">
<path d="M-0.000976562 27.6924H45.0838V29.9999H-0.000976562V27.6924Z" fill="#CB001C"/>
<path d="M-0.000976562 25.385H45.0838V27.6925H-0.000976562V25.385Z" fill="white"/>
<path d="M-0.000976562 23.0791H45.0838V25.3852H-0.000976562V23.0791Z" fill="#CB001C"/>
<path d="M-0.000976562 20.7715H45.0838V23.079H-0.000976562V20.7715Z" fill="white"/>
<path d="M-0.000976562 18.4629H45.0838V20.7717H-0.000976562V18.4629Z" fill="#CB001C"/>
<path d="M-0.000976562 16.1567H45.0838V18.4624H-0.000976562V16.1567Z" fill="white"/>
<path d="M-0.000976562 13.8464H45.0838V16.1571H-0.000976562V13.8464Z" fill="#CB001C"/>
<path d="M-0.000976562 11.54H45.0838V13.8462H-0.000976562V11.54Z" fill="white"/>
<path d="M-0.000976562 9.23267H45.0838V11.5402H-0.000976562V9.23267Z" fill="#CB001C"/>
<path d="M-0.000976562 6.92383H45.0838V9.23266H-0.000976562V6.92383Z" fill="white"/>
<path d="M-0.000976562 4.61646H45.0838V6.92394H-0.000976562V4.61646Z" fill="#CB001C"/>
<path d="M-0.000976562 2.30859H45.0838V4.61608H-0.000976562V2.30859Z" fill="white"/>
<path d="M-0.000976562 0H45.0838V2.30883H-0.000976562V0Z" fill="#CB001C"/>
<path d="M-0.000976562 0H23.4869V16.1569H-0.000976562V0Z" fill="#2A3560"/>
<path d="M2.12178 1.78101L2.32224 2.39308H2.96566L2.44483 2.77028L2.64258 3.38105L2.12178 3.00384L1.60095 3.38105L1.80452 2.77028L1.28369 2.39308H1.9213L2.12178 1.78101Z" fill="white"/>
<path d="M2.12178 4.47876L2.32224 5.08777H2.96566L2.44483 5.46323L2.64258 6.07661L2.12178 5.6981L1.60095 6.07661L1.80452 5.46323L1.28369 5.08777H1.9213L2.12178 4.47876Z" fill="white"/>
<path d="M2.12178 7.17456L2.32224 7.78346H2.96566L2.44483 8.16067L2.64258 8.77285L2.12178 8.39423L1.60095 8.77285L1.80452 8.16067L1.28369 7.78346H1.9213L2.12178 7.17456Z" fill="white"/>
<path d="M2.12178 9.87012L2.32224 10.4823H2.96566L2.44483 10.8595L2.64258 11.4684L2.12178 11.0931L1.60095 11.4684L1.80452 10.8595L1.28369 10.4823H1.9213L2.12178 9.87012Z" fill="white"/>
<path d="M2.12178 12.5671L2.32224 13.1805H2.96566L2.44483 13.5547L2.64258 14.1654L2.12178 13.7882L1.60095 14.1654L1.80452 13.5547L1.28369 13.1805H1.9213L2.12178 12.5671Z" fill="white"/>
<path d="M4.00112 3.20068L4.19261 3.81276H4.83874L4.32102 4.19127L4.51523 4.80029L4.00065 4.42483L3.48296 4.80029L3.6776 4.19127L3.15991 3.81276H3.80334L4.00112 3.20068Z" fill="white"/>
<path d="M4.00112 5.89844L4.19261 6.50745H4.83874L4.32102 6.88597L4.51523 7.49498L4.00065 7.12083L3.48296 7.49498L3.6776 6.88597L3.15991 6.50745H3.80334L4.00112 5.89844Z" fill="white"/>
<path d="M4.00112 8.59741L4.19261 9.20817H4.83874L4.32102 9.58538L4.51523 10.1961L4.00065 9.81893L3.48296 10.1961L3.6776 9.58538L3.15991 9.20817H3.80334L4.00112 8.59741Z" fill="white"/>
<path d="M4.00112 11.2935L4.19261 11.9025H4.83874L4.32102 12.2797L4.51523 12.8886L4.00065 12.5101L3.48296 12.8886L3.6776 12.2797L3.15991 11.9025H3.80334L4.00112 11.2935Z" fill="white"/>
<path d="M5.89859 1.78101L6.09904 2.39308H6.74246L6.22164 2.77028L6.42209 3.38105L5.89859 3.00384L5.38357 3.38105L5.58089 2.77028L5.06006 2.39308H5.70037L5.89859 1.78101Z" fill="white"/>
<path d="M5.89859 4.47876L6.09904 5.08777H6.74246L6.22164 5.46323L6.42209 6.07661L5.89859 5.6981L5.38357 6.07661L5.58089 5.46323L5.06006 5.08777H5.70037L5.89859 4.47876Z" fill="white"/>
<path d="M5.89859 7.17456L6.09904 7.78346H6.74246L6.22164 8.16067L6.42209 8.77285L5.89859 8.39423L5.38357 8.77285L5.58089 8.16067L5.06006 7.78346H5.70037L5.89859 7.17456Z" fill="white"/>
<path d="M5.89859 9.87012L6.09904 10.4823H6.74246L6.22164 10.8595L6.42209 11.4684L5.89859 11.0931L5.38357 11.4684L5.58089 10.8595L5.06006 10.4823H5.70037L5.89859 9.87012Z" fill="white"/>
<path d="M5.89859 12.5671L6.09904 13.1805H6.74246L6.22164 13.5547L6.42209 14.1654L5.89859 13.7882L5.38357 14.1654L5.58089 13.5547L5.06006 13.1805H5.70037L5.89859 12.5671Z" fill="white"/>
<path d="M7.77748 3.20068L7.9748 3.81276H8.62136L8.09786 4.19127L8.29831 4.80029L7.77748 4.42483L7.25979 4.80029L7.46025 4.19127L6.93628 3.81276H7.5797L7.77748 3.20068Z" fill="white"/>
<path d="M7.77748 5.89844L7.9748 6.50745H8.62136L8.09786 6.88597L8.29831 7.49498L7.77748 7.12083L7.25979 7.49498L7.46025 6.88597L6.93628 6.50745H7.5797L7.77748 5.89844Z" fill="white"/>
<path d="M7.77748 8.59741L7.9748 9.20817H8.62136L8.09786 9.58538L8.29831 10.1961L7.77748 9.81893L7.25979 10.1961L7.46025 9.58538L6.93628 9.20817H7.5797L7.77748 8.59741Z" fill="white"/>
<path d="M7.77748 11.2935L7.9748 11.9025H8.62136L8.09786 12.2797L8.29831 12.8886L7.77748 12.5101L7.25979 12.8886L7.46025 12.2797L6.93628 11.9025H7.5797L7.77748 11.2935Z" fill="white"/>
<path d="M9.68111 1.78101L9.88156 2.39308H10.5191L9.99834 2.77028L10.205 3.38105L9.68154 3.00384L9.16069 3.38105L9.35803 2.77028L8.84302 2.39308H9.48377L9.68111 1.78101Z" fill="white"/>
<path d="M9.68111 4.47876L9.88156 5.08777H10.5191L9.99834 5.46323L10.205 6.07661L9.68154 5.6981L9.16069 6.07661L9.35803 5.46323L8.84302 5.08777H9.48377L9.68111 4.47876Z" fill="white"/>
<path d="M9.68111 7.17456L9.88156 7.78346H10.5191L9.99834 8.16067L10.205 8.77285L9.68154 8.39423L9.16069 8.77285L9.35803 8.16067L8.84302 7.78346H9.48377L9.68111 7.17456Z" fill="white"/>
<path d="M9.68111 9.87012L9.88156 10.4823H10.5191L9.99834 10.8595L10.205 11.4684L9.68154 11.0931L9.16069 11.4684L9.35803 10.8595L8.84302 10.4823H9.48377L9.68111 9.87012Z" fill="white"/>
<path d="M9.68111 12.5671L9.88156 13.1805H10.5191L9.99834 13.5547L10.205 14.1654L9.68154 13.7882L9.16069 14.1654L9.35803 13.5547L8.84302 13.1805H9.48377L9.68111 12.5671Z" fill="white"/>
<path d="M11.56 3.20068L11.7578 3.81276H12.398L11.8804 4.19127L12.075 4.80029L11.5604 4.42483L11.0428 4.80029L11.2369 4.19127L10.7192 3.81276H11.3595L11.56 3.20068Z" fill="white"/>
<path d="M11.56 5.89844L11.7578 6.50745H12.398L11.8804 6.88597L12.075 7.49498L11.5604 7.12083L11.0428 7.49498L11.2369 6.88597L10.7192 6.50745H11.3595L11.56 5.89844Z" fill="white"/>
<path d="M11.56 8.59741L11.7578 9.20817H12.398L11.8804 9.58538L12.075 10.1961L11.5604 9.81893L11.0428 10.1961L11.2369 9.58538L10.7192 9.20817H11.3595L11.56 8.59741Z" fill="white"/>
<path d="M11.56 11.2935L11.7578 11.9025H12.398L11.8804 12.2797L12.075 12.8886L11.5604 12.5101L11.0428 12.8886L11.2369 12.2797L10.7192 11.9025H11.3595L11.56 11.2935Z" fill="white"/>
<path d="M13.4585 1.78101L13.659 2.39308H14.2997L13.782 2.77028L13.9825 3.38105L13.4589 3.00384L12.9439 3.38105L13.1386 2.77028L12.6208 2.39308H13.2612L13.4585 1.78101Z" fill="white"/>
<path d="M13.4585 4.47876L13.659 5.08777H14.2997L13.782 5.46323L13.9825 6.07661L13.4589 5.6981L12.9439 6.07661L13.1386 5.46323L12.6208 5.08777H13.2612L13.4585 4.47876Z" fill="white"/>
<path d="M13.4585 7.17456L13.659 7.78346H14.2997L13.782 8.16067L13.9825 8.77285L13.4589 8.39423L12.9439 8.77285L13.1386 8.16067L12.6208 7.78346H13.2612L13.4585 7.17456Z" fill="white"/>
<path d="M13.4585 9.87012L13.659 10.4823H14.2997L13.782 10.8595L13.9825 11.4684L13.4589 11.0931L12.9439 11.4684L13.1386 10.8595L12.6208 10.4823H13.2612L13.4585 9.87012Z" fill="white"/>
<path d="M13.4585 12.5671L13.659 13.1805H14.2997L13.782 13.5547L13.9825 14.1654L13.4589 13.7882L12.9439 14.1654L13.1386 13.5547L12.6208 13.1805H13.2612L13.4585 12.5671Z" fill="white"/>
<path d="M15.3376 3.20068L15.5349 3.81276H16.1815L15.6606 4.19127L15.8584 4.80029L15.3376 4.42483L14.8199 4.80029L15.0204 4.19127L14.4995 3.81276H15.1429L15.3376 3.20068Z" fill="white"/>
<path d="M15.3376 5.89844L15.5349 6.50745H16.1815L15.6606 6.88597L15.8584 7.49498L15.3376 7.12083L14.8199 7.49498L15.0204 6.88597L14.4995 6.50745H15.1429L15.3376 5.89844Z" fill="white"/>
<path d="M15.3376 8.59741L15.5349 9.20817H16.1815L15.6606 9.58538L15.8584 10.1961L15.3376 9.81893L14.8199 10.1961L15.0204 9.58538L14.4995 9.20817H15.1429L15.3376 8.59741Z" fill="white"/>
<path d="M15.3376 11.2935L15.5349 11.9025H16.1815L15.6606 12.2797L15.8584 12.8886L15.3376 12.5101L14.8199 12.8886L15.0204 12.2797L14.4995 11.9025H15.1429L15.3376 11.2935Z" fill="white"/>
<path d="M17.2409 1.78101L17.4414 2.39308H18.0817L17.564 2.77028L17.7586 3.38105L17.2409 3.00384L16.7263 3.38105L16.9205 2.77028L16.4028 2.39308H17.0431L17.2409 1.78101Z" fill="white"/>
<path d="M17.2409 4.47876L17.4414 5.08777H18.0817L17.564 5.46323L17.7586 6.07661L17.2409 5.6981L16.7263 6.07661L16.9205 5.46323L16.4028 5.08777H17.0431L17.2409 4.47876Z" fill="white"/>
<path d="M17.2409 7.17456L17.4414 7.78346H18.0817L17.564 8.16067L17.7586 8.77285L17.2409 8.39423L16.7263 8.77285L16.9205 8.16067L16.4028 7.78346H17.0431L17.2409 7.17456Z" fill="white"/>
<path d="M17.2409 9.87012L17.4414 10.4823H18.0817L17.564 10.8595L17.7586 11.4684L17.2409 11.0931L16.7263 11.4684L16.9205 10.8595L16.4028 10.4823H17.0431L17.2409 9.87012Z" fill="white"/>
<path d="M17.2409 12.5671L17.4414 13.1805H18.0817L17.564 13.5547L17.7586 14.1654L17.2409 13.7882L16.7263 14.1654L16.9205 13.5547L16.4028 13.1805H17.0431L17.2409 12.5671Z" fill="white"/>
<path d="M19.1208 3.20068L19.3154 3.81276H19.9589L19.4439 4.19127L19.6354 4.80029L19.1204 4.42483L18.5968 4.80029L18.7973 4.19127L18.2827 3.81276H18.9203L19.1208 3.20068Z" fill="white"/>
<path d="M19.1208 5.89844L19.3154 6.50745H19.9589L19.4439 6.88597L19.6354 7.49498L19.1204 7.12083L18.5968 7.49498L18.7973 6.88597L18.2827 6.50745H18.9203L19.1208 5.89844Z" fill="white"/>
<path d="M19.1208 8.59741L19.3154 9.20817H19.9589L19.4439 9.58538L19.6354 10.1961L19.1204 9.81893L18.5968 10.1961L18.7973 9.58538L18.2827 9.20817H18.9203L19.1208 8.59741Z" fill="white"/>
<path d="M19.1208 11.2935L19.3154 11.9025H19.9589L19.4439 12.2797L19.6354 12.8886L19.1204 12.5101L18.5968 12.8886L18.7973 12.2797L18.2827 11.9025H18.9203L19.1208 11.2935Z" fill="white"/>
<path d="M21.0171 1.78101L21.2207 2.39308H21.8583L21.3406 2.77028L21.541 3.38105L21.0175 3.00384L20.5025 3.38105L20.6971 2.77028L20.1794 2.39308H20.8198L21.0171 1.78101Z" fill="white"/>
<path d="M21.0171 4.47876L21.2207 5.08777H21.8583L21.3406 5.46323L21.541 6.07661L21.0175 5.6981L20.5025 6.07661L20.6971 5.46323L20.1794 5.08777H20.8198L21.0171 4.47876Z" fill="white"/>
<path d="M21.0171 7.17456L21.2207 7.78346H21.8583L21.3406 8.16067L21.541 8.77285L21.0175 8.39423L20.5025 8.77285L20.6971 8.16067L20.1794 7.78346H20.8198L21.0171 7.17456Z" fill="white"/>
<path d="M21.0171 9.87012L21.2207 10.4823H21.8583L21.3406 10.8595L21.541 11.4684L21.0175 11.0931L20.5025 11.4684L20.6971 10.8595L20.1794 10.4823H20.8198L21.0171 9.87012Z" fill="white"/>
<path d="M21.0171 12.5671L21.2207 13.1805H21.8583L21.3406 13.5547L21.541 14.1654L21.0175 13.7882L20.5025 14.1654L20.6971 13.5547L20.1794 13.1805H20.8198L21.0171 12.5671Z" fill="white"/>
</svg>
