<svg xmlns="http://www.w3.org/2000/svg" width="100.76" height="67.047" viewBox="0 0 100.76 67.047">
    <defs>
        <style>
            .cls-1{fill:#cb001c}.cls-2{fill:#fff}
        </style>
    </defs>
    <g id="그룹_870" transform="translate(-969.337 -2656.615)">
        <path id="사각형_466" d="M0 0H100.76V5.157H0z" class="cls-1" transform="translate(969.336 2718.505)"/>
        <path id="사각형_467" d="M0 0H100.76V5.157H0z" class="cls-2" transform="translate(969.336 2713.348)"/>
        <path id="사각형_468" d="M0 0H100.76V5.154H0z" class="cls-1" transform="translate(969.336 2708.194)"/>
        <path id="사각형_469" d="M0 0H100.76V5.157H0z" class="cls-2" transform="translate(969.336 2703.037)"/>
        <path id="사각형_470" d="M0 0H100.76V5.16H0z" class="cls-1" transform="translate(969.336 2697.877)"/>
        <path id="사각형_471" d="M0 0H100.76V5.153H0z" class="cls-2" transform="translate(969.336 2692.724)"/>
        <path id="사각형_472" d="M0 0H100.76V5.164H0z" class="cls-1" transform="translate(969.336 2687.56)"/>
        <path id="사각형_473" d="M0 0H100.76V5.154H0z" class="cls-2" transform="translate(969.336 2682.406)"/>
        <path id="사각형_474" d="M0 0H100.76V5.157H0z" class="cls-1" transform="translate(969.336 2677.249)"/>
        <path id="사각형_475" d="M0 0H100.76V5.16H0z" class="cls-2" transform="translate(969.336 2672.089)"/>
        <path id="사각형_476" d="M0 0H100.76V5.157H0z" class="cls-1" transform="translate(969.336 2666.932)"/>
        <path id="사각형_477" d="M0 0H100.76V5.157H0z" class="cls-2" transform="translate(969.336 2661.775)"/>
        <path id="사각형_478" d="M0 0H100.76V5.16H0z" class="cls-1" transform="translate(969.336 2656.615)"/>
        <path id="사각형_479" fill="#2a3560" d="M0 0H52.493V36.109H0z" transform="translate(969.336 2656.615)"/>
        <path id="패스_1239" d="M980.155 2669.021l.448 1.368h1.438l-1.164.843.442 1.365-1.164-.843-1.164.843.455-1.365-1.164-.843h1.425z" class="cls-2" transform="translate(-6.075 -8.426)"/>
        <path id="패스_1240" d="M980.155 2687.817l.448 1.361h1.438l-1.164.839.442 1.371-1.164-.846-1.164.846.455-1.371-1.164-.839h1.425z" class="cls-2" transform="translate(-6.075 -21.192)"/>
        <path id="패스_1241" d="M980.155 2706.6l.448 1.361h1.438l-1.164.843.442 1.368-1.164-.846-1.164.846.455-1.368-1.164-.843h1.425z" class="cls-2" transform="translate(-6.075 -33.951)"/>
        <path id="패스_1242" d="M980.155 2725.378l.448 1.368h1.438l-1.164.843.442 1.361-1.164-.839-1.164.839.455-1.361-1.164-.843h1.425z" class="cls-2" transform="translate(-6.075 -46.704)"/>
        <path id="패스_1243" d="M980.155 2744.165l.448 1.371h1.438l-1.164.836.442 1.365-1.164-.843-1.164.843.455-1.365-1.164-.836h1.425z" class="cls-2" transform="translate(-6.075 -59.464)"/>
        <path id="패스_1244" d="M993.234 2678.914l.428 1.368h1.444l-1.157.846.434 1.361-1.15-.839-1.157.839.435-1.361-1.157-.846h1.438z" class="cls-2" transform="translate(-14.954 -15.146)"/>
        <path id="패스_1245" d="M993.234 2697.71l.428 1.361h1.444l-1.157.846.434 1.361-1.15-.836-1.157.836.435-1.361-1.157-.846h1.438z" class="cls-2" transform="translate(-14.954 -27.912)"/>
        <path id="패스_1246" d="M993.234 2716.5l.428 1.365h1.444l-1.157.843.434 1.365-1.15-.843-1.157.843.435-1.365-1.157-.843h1.438z" class="cls-2" transform="translate(-14.954 -40.671)"/>
        <path id="패스_1247" d="M993.234 2735.292l.428 1.361h1.444l-1.157.843.434 1.361-1.15-.846-1.157.846.435-1.361-1.157-.843h1.438z" class="cls-2" transform="translate(-14.954 -53.437)"/>
        <path id="패스_1248" d="M1006.468 2669.021l.448 1.368h1.438l-1.164.843.448 1.365-1.17-.843-1.151.843.441-1.365-1.164-.843h1.431z" class="cls-2" transform="translate(-23.947 -8.426)"/>
        <path id="패스_1249" d="M1006.468 2687.817l.448 1.361h1.438l-1.164.839.448 1.371-1.17-.846-1.151.846.441-1.371-1.164-.839h1.431z" class="cls-2" transform="translate(-23.947 -21.192)"/>
        <path id="패스_1250" d="M1006.468 2706.6l.448 1.361h1.438l-1.164.843.448 1.368-1.17-.846-1.151.846.441-1.368-1.164-.843h1.431z" class="cls-2" transform="translate(-23.947 -33.951)"/>
        <path id="패스_1251" d="M1006.468 2725.378l.448 1.368h1.438l-1.164.843.448 1.361-1.17-.839-1.151.839.441-1.361-1.164-.843h1.431z" class="cls-2" transform="translate(-23.947 -46.704)"/>
        <path id="패스_1252" d="M1006.468 2744.165l.448 1.371h1.438l-1.164.836.448 1.365-1.17-.843-1.151.843.441-1.365-1.164-.836h1.431z" class="cls-2" transform="translate(-23.947 -59.464)"/>
        <path id="패스_1253" d="M1019.547 2678.914l.441 1.368h1.445l-1.17.846.448 1.361-1.164-.839-1.157.839.448-1.361-1.171-.846h1.438z" class="cls-2" transform="translate(-32.827 -15.146)"/>
        <path id="패스_1254" d="M1019.547 2697.71l.441 1.361h1.445l-1.17.846.448 1.361-1.164-.836-1.157.836.448-1.361-1.171-.846h1.438z" class="cls-2" transform="translate(-32.827 -27.912)"/>
        <path id="패스_1255" d="M1019.547 2716.5l.441 1.365h1.445l-1.17.843.448 1.365-1.164-.843-1.157.843.448-1.365-1.171-.843h1.438z" class="cls-2" transform="translate(-32.827 -40.671)"/>
        <path id="패스_1256" d="M1019.547 2735.292l.441 1.361h1.445l-1.17.843.448 1.361-1.164-.846-1.157.846.448-1.361-1.171-.843h1.438z" class="cls-2" transform="translate(-32.827 -53.437)"/>
        <path id="패스_1257" d="M1032.821 2669.021l.448 1.368h1.425l-1.164.843.462 1.365-1.17-.843-1.164.843.441-1.365-1.151-.843h1.432z" class="cls-2" transform="translate(-41.847 -8.426)"/>
        <path id="패스_1258" d="M1032.821 2687.817l.448 1.361h1.425l-1.164.839.462 1.371-1.17-.846-1.164.846.441-1.371-1.151-.839h1.432z" class="cls-2" transform="translate(-41.847 -21.192)"/>
        <path id="패스_1259" d="M1032.821 2706.6l.448 1.361h1.425l-1.164.843.462 1.368-1.17-.846-1.164.846.441-1.368-1.151-.843h1.432z" class="cls-2" transform="translate(-41.847 -33.951)"/>
        <path id="패스_1260" d="M1032.821 2725.378l.448 1.368h1.425l-1.164.843.462 1.361-1.17-.839-1.164.839.441-1.361-1.151-.843h1.432z" class="cls-2" transform="translate(-41.847 -46.704)"/>
        <path id="패스_1261" d="M1032.821 2744.165l.448 1.371h1.425l-1.164.836.462 1.365-1.17-.843-1.164.843.441-1.365-1.151-.836h1.432z" class="cls-2" transform="translate(-41.847 -59.464)"/>
        <path id="패스_1262" d="M1045.9 2678.914l.442 1.368h1.431l-1.157.846.435 1.361-1.15-.839-1.157.839.434-1.361-1.157-.846h1.431z" class="cls-2" transform="translate(-50.726 -15.146)"/>
        <path id="패스_1263" d="M1045.9 2697.71l.442 1.361h1.431l-1.157.846.435 1.361-1.15-.836-1.157.836.434-1.361-1.157-.846h1.431z" class="cls-2" transform="translate(-50.726 -27.912)"/>
        <path id="패스_1264" d="M1045.9 2716.5l.442 1.365h1.431l-1.157.843.435 1.365-1.15-.843-1.157.843.434-1.365-1.157-.843h1.431z" class="cls-2" transform="translate(-50.726 -40.671)"/>
        <path id="패스_1265" d="M1045.9 2735.292l.442 1.361h1.431l-1.157.843.435 1.361-1.15-.846-1.157.846.434-1.361-1.157-.843h1.431z" class="cls-2" transform="translate(-50.726 -53.437)"/>
        <path id="패스_1266" d="M1059.135 2669.021l.448 1.368h1.432l-1.157.843.448 1.365-1.17-.843-1.151.843.435-1.365-1.157-.843h1.431z" class="cls-2" transform="translate(-59.719 -8.426)"/>
        <path id="패스_1267" d="M1059.135 2687.817l.448 1.361h1.432l-1.157.839.448 1.371-1.17-.846-1.151.846.435-1.371-1.157-.839h1.431z" class="cls-2" transform="translate(-59.719 -21.192)"/>
        <path id="패스_1268" d="M1059.135 2706.6l.448 1.361h1.432l-1.157.843.448 1.368-1.17-.846-1.151.846.435-1.368-1.157-.843h1.431z" class="cls-2" transform="translate(-59.719 -33.951)"/>
        <path id="패스_1269" d="M1059.135 2725.378l.448 1.368h1.432l-1.157.843.448 1.361-1.17-.839-1.151.839.435-1.361-1.157-.843h1.431z" class="cls-2" transform="translate(-59.719 -46.704)"/>
        <path id="패스_1270" d="M1059.135 2744.165l.448 1.371h1.432l-1.157.836.448 1.365-1.17-.843-1.151.843.435-1.365-1.157-.836h1.431z" class="cls-2" transform="translate(-59.719 -59.464)"/>
        <path id="패스_1271" d="M1072.228 2678.914l.441 1.368h1.445l-1.164.846.442 1.361-1.164-.839-1.157.839.448-1.361-1.164-.846h1.438z" class="cls-2" transform="translate(-68.612 -15.146)"/>
        <path id="패스_1272" d="M1072.228 2697.71l.441 1.361h1.445l-1.164.846.442 1.361-1.164-.836-1.157.836.448-1.361-1.164-.846h1.438z" class="cls-2" transform="translate(-68.612 -27.912)"/>
        <path id="패스_1273" d="M1072.228 2716.5l.441 1.365h1.445l-1.164.843.442 1.365-1.164-.843-1.157.843.448-1.365-1.164-.843h1.438z" class="cls-2" transform="translate(-68.612 -40.671)"/>
        <path id="패스_1274" d="M1072.228 2735.292l.441 1.361h1.445l-1.164.843.442 1.361-1.164-.846-1.157.846.448-1.361-1.164-.843h1.438z" class="cls-2" transform="translate(-68.612 -53.437)"/>
        <path id="패스_1275" d="M1085.489 2669.021l.448 1.368h1.431l-1.157.843.435 1.365-1.157-.843-1.15.843.434-1.365-1.157-.843h1.431z" class="cls-2" transform="translate(-77.619 -8.426)"/>
        <path id="패스_1276" d="M1085.489 2687.817l.448 1.361h1.431l-1.157.839.435 1.371-1.157-.846-1.15.846.434-1.371-1.157-.839h1.431z" class="cls-2" transform="translate(-77.619 -21.192)"/>
        <path id="패스_1277" d="M1085.489 2706.6l.448 1.361h1.431l-1.157.843.435 1.368-1.157-.846-1.15.846.434-1.368-1.157-.843h1.431z" class="cls-2" transform="translate(-77.619 -33.951)"/>
        <path id="패스_1278" d="M1085.489 2725.378l.448 1.368h1.431l-1.157.843.435 1.361-1.157-.839-1.15.839.434-1.361-1.157-.843h1.431z" class="cls-2" transform="translate(-77.619 -46.704)"/>
        <path id="패스_1279" d="M1085.489 2744.165l.448 1.371h1.431l-1.157.836.435 1.365-1.157-.843-1.15.843.434-1.365-1.157-.836h1.431z" class="cls-2" transform="translate(-77.619 -59.464)"/>
        <path id="패스_1280" d="M1098.583 2678.914l.435 1.368h1.438l-1.151.846.428 1.361-1.151-.839-1.17.839.448-1.361-1.15-.846h1.425z" class="cls-2" transform="translate(-86.512 -15.146)"/>
        <path id="패스_1281" d="M1098.583 2697.71l.435 1.361h1.438l-1.151.846.428 1.361-1.151-.836-1.17.836.448-1.361-1.15-.846h1.425z" class="cls-2" transform="translate(-86.512 -27.912)"/>
        <path id="패스_1282" d="M1098.583 2716.5l.435 1.365h1.438l-1.151.843.428 1.365-1.151-.843-1.17.843.448-1.365-1.15-.843h1.425z" class="cls-2" transform="translate(-86.512 -40.671)"/>
        <path id="패스_1283" d="M1098.583 2735.292l.435 1.361h1.438l-1.151.843.428 1.361-1.151-.846-1.17.846.448-1.361-1.15-.843h1.425z" class="cls-2" transform="translate(-86.512 -53.437)"/>
        <path id="패스_1284" d="M1111.8 2669.021l.455 1.368h1.425l-1.157.843.448 1.365-1.17-.843-1.151.843.435-1.365-1.157-.843h1.431z" class="cls-2" transform="translate(-95.491 -8.426)"/>
        <path id="패스_1285" d="M1111.8 2687.817l.455 1.361h1.425l-1.157.839.448 1.371-1.17-.846-1.151.846.435-1.371-1.157-.839h1.431z" class="cls-2" transform="translate(-95.491 -21.192)"/>
        <path id="패스_1286" d="M1111.8 2706.6l.455 1.361h1.425l-1.157.843.448 1.368-1.17-.846-1.151.846.435-1.368-1.157-.843h1.431z" class="cls-2" transform="translate(-95.491 -33.951)"/>
        <path id="패스_1287" d="M1111.8 2725.378l.455 1.368h1.425l-1.157.843.448 1.361-1.17-.839-1.151.839.435-1.361-1.157-.843h1.431z" class="cls-2" transform="translate(-95.491 -46.704)"/>
        <path id="패스_1288" d="M1111.8 2744.165l.455 1.371h1.425l-1.157.836.448 1.365-1.17-.843-1.151.843.435-1.365-1.157-.836h1.431z" class="cls-2" transform="translate(-95.491 -59.464)"/>
        <path id="사각형_480" fill="none" d="M0 0H100.76V67.047H0z" transform="translate(969.336 2656.615)"/>
    </g>
</svg>