<svg xmlns="http://www.w3.org/2000/svg" width="100.921" height="67.174" viewBox="0 0 100.921 67.174">
    <defs>
        <style>
            .cls-4{fill:#fafafc}.cls-5{fill:#fbfbfd}
        </style>
    </defs>
    <g id="그룹_867" transform="translate(-1923.21 -3360.551)">
        <path id="패스_1211" fill="#fd0000" d="M1973.671 3360.559q25.037 0 50.074-.008c.315 0 .386.071.386.385q-.013 33.2 0 66.4c0 .314-.071.385-.386.385q-50.074-.012-100.149 0c-.315 0-.386-.071-.386-.385q.014-16.6.008-33.2 24.971 0 49.942.01c.42 0 .521-.094.521-.518q-.02-16.533-.01-33.069z"/>
        <path id="패스_1212" fill="#000095" d="M1973.671 3360.559q0 16.535.011 33.071c0 .424-.1.519-.521.518q-24.971-.018-49.942-.01 0-16.6-.008-33.2c0-.314.071-.385.386-.385q25.036.012 50.074.006zm-18.992 27.523l.015.05c0-.008.009-.02.005-.023a.141.141 0 0 0-.03-.02c-.182-.986-.5-1.937-.752-2.905-.217-.832-.445-1.661-.682-2.543a7.733 7.733 0 0 1-2.615 1.518c1.353 1.34 2.651 2.626 3.952 3.91.022.02.072.009.107.014zm0-21.467c-.18-.037-.225.133-.313.22-.817.806-1.623 1.625-2.44 2.431-.416.41-.849.8-1.346 1.269a7.71 7.71 0 0 1 2.655 1.508c.2-.719.385-1.374.552-2.035.287-1.135.655-2.249.881-3.4a.163.163 0 0 0 .029-.021s0-.014-.007-.022zm-12.472 0l-.014-.051c0 .008-.011.021-.008.024a.136.136 0 0 0 .032.021c.176.96.484 1.886.729 2.828.224.86.461 1.717.706 2.625a7.766 7.766 0 0 1 2.61-1.525c-1.349-1.336-2.648-2.624-3.95-3.909-.018-.023-.068-.011-.103-.015zm0 21.469c.133.062.167-.07.224-.128q1.828-1.82 3.648-3.65c.044-.044.122-.081.079-.19a8.611 8.611 0 0 1-1.275-.58 9.3 9.3 0 0 1-1.233-.882c-.186.689-.371 1.344-.54 2-.295 1.146-.663 2.272-.892 3.435a.153.153 0 0 0-.032.021l.009.023zm-4.523-4.519c.949-.161 1.86-.476 2.791-.709.876-.22 1.743-.471 2.667-.722a7.717 7.717 0 0 1-1.522-2.609c-1.34 1.349-2.628 2.646-3.914 3.945-.02.02-.01.07-.015.1l-.05.017c.008 0 .021.009.024.006a.127.127 0 0 0 .02-.03zm21.519 0a.153.153 0 0 0 .021.032l.023-.009-.052-.012c.061-.132-.071-.166-.128-.223q-1.822-1.824-3.652-3.639c-.044-.043-.079-.122-.2-.078a7.472 7.472 0 0 1-1.471 2.5c.7.189 1.361.367 2.018.539 1.15.295 2.28.651 3.438.888zm-.009-12.442l-5.448 1.435a6.894 6.894 0 0 1 1.374 2.271c.12.35.218.241.4.063 1.164-1.167 2.337-2.327 3.5-3.5.074-.075.243-.116.172-.284l.054.01c0-.006-.011-.017-.014-.017a.215.215 0 0 0-.032.02zm-17.057 6.238a6.306 6.306 0 1 0 6.3-6.306 6.307 6.307 0 0 0-6.299 6.304zm4.806-6.985a7.529 7.529 0 0 1 3-.013l-1.458-5.448-.086.015zM1936 3377.3l-.009.092 5.463 1.452a7.542 7.542 0 0 1-.015-2.99zm19.43-1.45a7.53 7.53 0 0 1 .007 2.993l5.46-1.455-.01-.086zm-7.032 13.929h.086l1.456-5.458a7.5 7.5 0 0 1-3 .016zm-5.26-17.221l-5.43-1.458 3.951 3.985a7.387 7.387 0 0 1 1.483-2.525z"/>
        <path id="패스_1213" fill="#fdfdfe" d="M1982.1 3399.531a6.306 6.306 0 1 1 6.317 6.285 6.3 6.3 0 0 1-6.317-6.285z" transform="translate(-39.963 -22.172)"/>
        <path id="패스_1214" d="M1997.053 3379.583l1.454-5.446.086-.015 1.458 5.447a7.538 7.538 0 0 0-2.998.014z" class="cls-4" transform="translate(-50.11 -9.209)"/>
        <path id="패스_1215" d="M1963 3409.612l5.438-1.447a7.547 7.547 0 0 0 .015 2.99l-5.463-1.452z" class="cls-4" transform="translate(-26.993 -32.311)"/>
        <path id="패스_1216" d="M2023.469 3408.156l5.458 1.452.01.086-5.46 1.456a7.532 7.532 0 0 0-.008-2.994z" class="cls-4" transform="translate(-68.035 -32.304)"/>
        <path id="패스_1217" d="M1998.518 3439.966l-1.456-5.443a7.5 7.5 0 0 0 3-.016l-1.456 5.458z" class="cls-4" transform="translate(-50.116 -50.186)"/>
        <path id="패스_1218" d="M1973.759 3394.836a7.389 7.389 0 0 0-1.48 2.527l-3.951-3.985z" class="cls-5" transform="translate(-30.617 -22.277)"/>
        <path id="패스_1219" d="M2023.664 3393.4c.072.17-.1.211-.171.286-1.164 1.168-2.336 2.328-3.5 3.5-.178.179-.276.288-.4-.063a6.889 6.889 0 0 0-1.374-2.271l5.447-1.435z" class="cls-5" transform="translate(-64.475 -22.291)"/>
        <path id="패스_1220" d="M2023.684 3423.827c-1.161-.238-2.291-.594-3.436-.895-.657-.172-1.313-.35-2.018-.539a7.472 7.472 0 0 0 1.471-2.5c.116-.044.152.035.2.078q1.829 1.816 3.652 3.639c.057.057.19.091.128.223z" class="cls-5" transform="translate(-64.48 -40.263)"/>
        <path id="패스_1221" d="M1968.253 3423.626c0-.036-.006-.085.014-.106 1.286-1.3 2.574-2.6 3.914-3.945a7.72 7.72 0 0 0 1.522 2.609c-.924.251-1.792.5-2.667.722-.931.234-1.841.549-2.791.709z" class="cls-5" transform="translate(-30.561 -40.054)"/>
        <path id="패스_1222" d="M1982.329 3434.755c.23-1.163.6-2.289.893-3.435.169-.658.354-1.312.54-2a9.32 9.32 0 0 0 1.233.882 8.637 8.637 0 0 0 1.275.58c.043.108-.034.145-.079.19q-1.821 1.827-3.648 3.65c-.058.057-.091.189-.224.128z" class="cls-5" transform="translate(-40.111 -46.666)"/>
        <path id="패스_1223" d="M1982.322 3379.4c.036 0 .085-.008.1.011 1.3 1.285 2.6 2.573 3.95 3.909a7.768 7.768 0 0 0-2.61 1.526c-.245-.908-.481-1.765-.705-2.625-.245-.942-.553-1.868-.729-2.828z" class="cls-5" transform="translate(-40.113 -12.785)"/>
        <path id="패스_1224" d="M2012.463 3379.4c-.226 1.151-.595 2.264-.882 3.4-.167.661-.356 1.316-.552 2.035a7.71 7.71 0 0 0-2.655-1.508c.5-.467.93-.859 1.346-1.269.817-.806 1.623-1.625 2.44-2.431.088-.087.133-.256.313-.22z" class="cls-5" transform="translate(-57.792 -12.789)"/>
        <path id="패스_1225" d="M2012.556 3434.722c-.036 0-.085.007-.106-.013-1.3-1.284-2.6-2.57-3.952-3.91a7.737 7.737 0 0 0 2.615-1.518c.237.883.465 1.711.682 2.543.252.968.57 1.919.752 2.905z" class="cls-5" transform="translate(-57.876 -46.64)"/>
        <path id="패스_1226" d="M1982.285 3379.3a.142.142 0 0 1-.032-.021l.008-.024.014.052z" class="cls-5" transform="translate(-40.066 -12.691)"/>
        <path id="패스_1227" d="M2021.106 3379.313l.011-.052c0 .008.01.019.007.022a.171.171 0 0 1-.029.021z" class="cls-5" transform="translate(-66.425 -12.696)"/>
        <path id="패스_1228" d="M2035.16 3393.4a.221.221 0 0 1 .035-.017l.014.017-.054-.011z" class="cls-5" transform="translate(-75.965 -22.282)"/>
        <path id="패스_1229" d="M1968.154 3432.149a.127.127 0 0 1-.019.031s-.016 0-.024-.006l.051-.017z" class="cls-5" transform="translate(-30.469 -48.586)"/>
        <path id="패스_1230" d="M2035.176 3432.162l.052.012c-.008 0-.021.011-.023.009a.167.167 0 0 1-.022-.031z" class="cls-5" transform="translate(-75.98 -48.588)"/>
        <path id="패스_1231" d="M1982.274 3446.21l-.012.052c0-.008-.011-.021-.009-.023a.168.168 0 0 1 .031-.021z" class="cls-5" transform="translate(-40.066 -58.128)"/>
        <path id="패스_1232" d="M2021.093 3446.217a.151.151 0 0 1 .03.02s0 .015-.006.023l-.015-.05z" class="cls-5" transform="translate(-66.423 -58.128)"/>
    </g>
</svg>