<svg width="46" height="30" viewBox="0 0 46 30" fill="none" xmlns="http://www.w3.org/2000/svg">
<path d="M22.5373 0.00359833C29.9922 0.00359833 37.447 0.00238202 44.9018 0C45.0425 0 45.0742 0.031715 45.0742 0.171956C45.0703 10.0573 45.0703 19.9427 45.0742 29.828C45.0742 29.9683 45.0425 30 44.9018 30C29.9922 29.9964 15.0823 29.9964 0.172392 30C0.0317045 30 0 29.9683 0 29.828C0.00416853 24.8854 0.00538484 19.9427 0.00359833 15C7.43877 15 14.874 15.0015 22.3091 15.0045C22.4967 15.0045 22.5418 14.9625 22.5418 14.7731C22.5359 9.85035 22.5344 4.92723 22.5373 0.00359833Z" fill="#FD0000"/>
<path d="M22.5373 0.00345843C22.5373 4.92679 22.539 9.85019 22.5423 14.7738C22.5423 14.9632 22.4976 15.0056 22.3096 15.0052C14.8744 14.9998 7.43921 14.9984 0.00403209 15.0007C0.00403209 10.058 0.0028703 5.11538 0.000488281 0.172689C0.000488281 0.0324474 0.0321928 0.000732422 0.172881 0.000732422C7.62741 0.00430545 15.0822 0.00524494 22.5373 0.00345843ZM14.0549 12.296L14.0617 12.3183C14.0617 12.3148 14.0657 12.3093 14.0639 12.308C14.0598 12.3044 14.0553 12.3015 14.0505 12.2992C13.9692 11.8588 13.8272 11.434 13.7146 11.0017C13.6177 10.6301 13.5159 10.2598 13.41 9.86592C13.0691 10.1666 12.6722 10.3969 12.2421 10.5438C12.8464 11.1423 13.4261 11.7167 14.0072 12.2902C14.017 12.2991 14.0393 12.2938 14.0549 12.296ZM14.0549 2.7082C13.9746 2.69167 13.9545 2.76759 13.9152 2.80644C13.5503 3.16643 13.1903 3.53228 12.8254 3.89227C12.6396 4.07538 12.4462 4.24948 12.2242 4.45895C12.6604 4.60216 13.0636 4.83118 13.41 5.13249C13.4994 4.81136 13.582 4.51886 13.6566 4.22364C13.7848 3.71672 13.9491 3.21911 14.05 2.70504C14.0547 2.7024 14.0591 2.69925 14.063 2.69566C14.063 2.69566 14.063 2.68942 14.0599 2.68585L14.0549 2.7082ZM8.48463 2.7082L8.47836 2.68541C8.47836 2.68898 8.47348 2.69476 8.47482 2.6961C8.47912 2.69988 8.48392 2.70304 8.4891 2.70547C8.56771 3.13424 8.70527 3.54787 8.8147 3.96859C8.91474 4.3527 9.02056 4.73546 9.12999 5.14099C9.47019 4.8398 9.86625 4.60842 10.2957 4.45993C9.69318 3.86323 9.11303 3.2879 8.53152 2.71398C8.52348 2.70371 8.50114 2.70911 8.4855 2.70733L8.48463 2.7082ZM8.48463 12.2969C8.54403 12.3246 8.55922 12.2656 8.58468 12.2397C9.12897 11.6978 9.67204 11.1544 10.214 10.6095C10.2336 10.5898 10.2684 10.5733 10.2492 10.5246C10.0527 10.4539 9.86229 10.3672 9.67982 10.2656C9.48584 10.1495 9.30165 10.0178 9.12911 9.8717C9.04604 10.1794 8.9634 10.472 8.88792 10.765C8.75616 11.2768 8.59182 11.7797 8.48954 12.2992C8.4844 12.3017 8.47961 12.3048 8.47525 12.3085L8.47923 12.3188L8.48463 12.2969ZM6.4645 10.2785C6.88835 10.2066 7.29523 10.0659 7.71105 9.96188C8.10229 9.86362 8.48952 9.75155 8.9022 9.63945C8.60107 9.2996 8.37006 8.90354 8.22244 8.47413C7.62396 9.07664 7.04873 9.65594 6.47437 10.2361C6.46543 10.245 6.46989 10.2674 6.46766 10.2808L6.44531 10.2883C6.44888 10.2883 6.45471 10.2924 6.45605 10.2911C6.45965 10.2871 6.46266 10.2825 6.46499 10.2777L6.4645 10.2785ZM16.0755 10.2785C16.078 10.2837 16.0812 10.2885 16.0849 10.2928L16.0951 10.2888L16.0719 10.2834C16.0992 10.2245 16.0402 10.2093 16.0148 10.1839C15.4723 9.64078 14.9286 9.09906 14.3837 8.55864C14.3641 8.53944 14.3484 8.5041 14.2943 8.52375C14.1504 8.93528 13.9272 9.31462 13.6374 9.64032C13.95 9.72473 14.2452 9.80426 14.5386 9.88108C15.0523 10.0128 15.557 10.1718 16.0742 10.2777L16.0755 10.2785ZM16.0715 4.72163L13.6383 5.36256C13.9066 5.65772 14.115 6.0022 14.2519 6.37686C14.3055 6.53318 14.3493 6.48449 14.4306 6.40499C14.9505 5.88377 15.4744 5.36568 15.9938 4.84179C16.0268 4.80829 16.1023 4.7899 16.0706 4.71487L16.0947 4.71934C16.0947 4.71666 16.0898 4.71181 16.0885 4.71181C16.0835 4.71437 16.0786 4.71736 16.0742 4.72075L16.0715 4.72163ZM8.45334 7.50771C8.45334 8.06486 8.61861 8.60944 8.92821 9.07266C9.2378 9.53587 9.67779 9.89686 10.1926 10.11C10.7074 10.323 11.2738 10.3787 11.8202 10.2698C12.3666 10.1609 12.8685 9.89239 13.2623 9.49824C13.6561 9.10408 13.9241 8.60204 14.0324 8.05553C14.1408 7.50902 14.0846 6.94259 13.8711 6.428C13.6575 5.91341 13.2961 5.4737 12.8326 5.16455C12.369 4.8554 11.8243 4.69067 11.2671 4.6912C10.5209 4.69215 9.80552 4.9892 9.27806 5.51707C8.7506 6.04495 8.45413 6.7605 8.45377 7.50673L8.45334 7.50771ZM10.5998 4.38796C11.0416 4.29616 11.4972 4.29422 11.9397 4.38218L11.2885 1.94895L11.2502 1.9556L10.5998 4.38796ZM5.71239 7.48045L5.70836 7.52156L8.1483 8.17002C8.05696 7.72979 8.05468 7.27573 8.14159 6.83461L5.71239 7.48045ZM14.3904 6.83286C14.4809 7.27375 14.4819 7.72828 14.3935 8.16958L16.8321 7.51971L16.8276 7.48132L14.3904 6.83286ZM11.2497 13.0539H11.2881L11.9384 10.6162C11.4968 10.7088 11.041 10.7112 10.5985 10.6233L11.2497 13.0539ZM8.9004 5.36256L6.47524 4.71138L8.23989 6.49113C8.38321 6.07478 8.60837 5.69138 8.9022 5.36344L8.9004 5.36256Z" fill="#000095"/>
<path d="M8.45338 7.50674C8.45153 6.94952 8.615 6.40423 8.92313 5.93994C9.23126 5.47566 9.67021 5.11325 10.1844 4.8985C10.6986 4.68375 11.2649 4.62631 11.8117 4.73352C12.3585 4.84074 12.8613 5.10782 13.2563 5.50084C13.6513 5.89386 13.9209 6.39521 14.0308 6.94148C14.1408 7.48774 14.0863 8.05429 13.8742 8.56956C13.662 9.08482 13.3018 9.52558 12.8391 9.83606C12.3764 10.1465 11.832 10.3128 11.2747 10.3138C10.9052 10.3148 10.539 10.243 10.1972 10.1024C9.85539 9.9619 9.54458 9.75543 9.28258 9.49476C9.02058 9.23409 8.81248 8.92429 8.67021 8.58319C8.52794 8.24208 8.45426 7.87633 8.45338 7.50674Z" fill="#FDFDFE"/>
<path d="M10.5996 4.38725L11.249 1.95489L11.2874 1.94824L11.9386 4.38104C11.4964 4.29345 11.041 4.29554 10.5996 4.38725Z" fill="#FAFAFC"/>
<path d="M5.7159 7.481L8.14466 6.83472C8.05781 7.27585 8.06009 7.72989 8.15136 8.17013L5.71143 7.52156L5.7159 7.481Z" fill="#FAFAFC"/>
<path d="M14.3921 6.83398L16.8298 7.48245L16.8343 7.52094L14.3957 8.17114C14.484 7.72966 14.4828 7.27499 14.3921 6.83398Z" fill="#FAFAFC"/>
<path d="M11.2516 13.0546L10.6013 10.6235C11.0439 10.7114 11.4996 10.7091 11.9412 10.6165L11.2909 13.0542L11.2516 13.0546Z" fill="#FAFAFC"/>
<path d="M8.90246 5.3631C8.60903 5.69144 8.38429 6.07523 8.24146 6.49178L6.47681 4.71191L8.90246 5.3631Z" fill="#FBFBFD"/>
<path d="M16.0691 4.71558C16.1012 4.7915 16.0245 4.80987 15.9927 4.84337C15.4729 5.36503 14.9494 5.88312 14.4295 6.40657C14.35 6.48652 14.3063 6.53521 14.2509 6.37844C14.114 6.00376 13.9056 5.65927 13.6372 5.36415L16.07 4.72321L16.0691 4.71558Z" fill="#FBFBFD"/>
<path d="M16.076 10.2784C15.5575 10.1721 15.0529 10.0131 14.5415 9.87863C14.248 9.80181 13.955 9.72239 13.6401 9.63797C13.93 9.31227 14.1532 8.93294 14.2972 8.5214C14.349 8.50175 14.365 8.53698 14.3865 8.55619C14.9311 9.0969 15.4747 9.63874 16.0175 10.1815C16.043 10.207 16.1024 10.2221 16.0747 10.2811L16.076 10.2784Z" fill="#FBFBFD"/>
<path d="M6.46795 10.282C6.46795 10.2659 6.46524 10.244 6.47417 10.2346C7.04853 9.65402 7.62382 9.07337 8.2223 8.47266C8.36995 8.90204 8.60095 9.2981 8.90206 9.63797C8.48937 9.75007 8.1017 9.86125 7.7109 9.9604C7.29509 10.0649 6.88865 10.2056 6.46436 10.2771L6.46795 10.282Z" fill="#FBFBFD"/>
<path d="M8.48958 12.2992C8.5923 11.7797 8.75758 11.2769 8.88845 10.7651C8.96393 10.4712 9.04652 10.1791 9.12959 9.87183C9.30215 10.0179 9.48634 10.1495 9.6803 10.2657C9.86279 10.3673 10.0532 10.454 10.2498 10.5248C10.269 10.573 10.2346 10.5895 10.2145 10.6096C9.67228 11.1536 9.12915 11.697 8.58515 12.2399C8.55925 12.2653 8.54451 12.3242 8.48511 12.297L8.48958 12.2992Z" fill="#FBFBFD"/>
<path d="M8.4856 2.70862C8.50167 2.70862 8.52355 2.70504 8.53025 2.71353C9.11086 3.28744 9.69146 3.86278 10.2944 4.45948C9.86495 4.60812 9.46889 4.83964 9.12871 5.14098C9.01929 4.73544 8.91391 4.35268 8.81386 3.96858C8.70444 3.54785 8.56687 3.13433 8.48827 2.70557L8.4856 2.70862Z" fill="#FBFBFD"/>
<path d="M14.0516 2.7063C13.9507 3.22037 13.7859 3.71753 13.6577 4.2249C13.5831 4.52012 13.4987 4.81263 13.4112 5.13375C13.0647 4.83244 12.6616 4.60342 12.2253 4.46021C12.4487 4.25163 12.6407 4.07665 12.8265 3.89353C13.1914 3.53355 13.5514 3.16769 13.9163 2.80771C13.9556 2.76885 13.9757 2.69338 14.0561 2.70946L14.0516 2.7063Z" fill="#FBFBFD"/>
<path d="M14.0553 12.2963C14.0393 12.2963 14.0173 12.2994 14.008 12.2905C13.4273 11.717 12.8468 11.1427 12.2429 10.5442C12.673 10.3972 13.0699 10.1668 13.4108 9.86621C13.5167 10.2606 13.6185 10.6304 13.7155 11.002C13.828 11.4343 13.97 11.8591 14.0513 12.2994L14.0553 12.2963Z" fill="#FBFBFD"/>
<path d="M8.48987 2.70572C8.4847 2.70325 8.4799 2.7001 8.47559 2.69634L8.47913 2.68555L8.4854 2.70877L8.48987 2.70572Z" fill="#FBFBFD"/>
<path d="M14.0559 2.70902L14.0608 2.68579C14.0608 2.68936 14.0653 2.69426 14.064 2.6956C14.06 2.69918 14.0557 2.70232 14.051 2.70498L14.0559 2.70902Z" fill="#FBFBFD"/>
<path d="M16.0721 4.71944C16.077 4.71645 16.0822 4.71398 16.0877 4.71191L16.0939 4.71944L16.0698 4.71453L16.0721 4.71944Z" fill="#FBFBFD"/>
<path d="M6.46505 10.2781C6.4629 10.2831 6.46002 10.2877 6.45654 10.2919C6.45654 10.2919 6.44937 10.292 6.4458 10.2893L6.46859 10.2817L6.46505 10.2781Z" fill="#FBFBFD"/>
<path d="M16.0725 10.2828L16.0957 10.2881C16.0922 10.2881 16.0863 10.2931 16.0854 10.2922C16.0816 10.2879 16.0784 10.2833 16.0756 10.2783L16.0725 10.2828Z" fill="#FBFBFD"/>
<path d="M8.48507 12.2961L8.47968 12.3194C8.47968 12.3158 8.4748 12.31 8.4757 12.3091C8.47995 12.3055 8.48459 12.3023 8.48954 12.2997L8.48507 12.2961Z" fill="#FBFBFD"/>
<path d="M14.051 12.2993C14.0558 12.3017 14.0603 12.3047 14.0644 12.3082C14.0644 12.3082 14.0644 12.3149 14.0617 12.3185L14.0551 12.2961L14.051 12.2993Z" fill="#FBFBFD"/>
</svg>
