<svg width="16" height="16" viewBox="0 0 16 16" fill="none" xmlns="http://www.w3.org/2000/svg">
<path d="M15.5 10.3178C15.5019 9.51906 15.2739 8.72917 14.8313 8.00088C15.3532 7.1357 15.5748 6.1875 15.476 5.24262C15.3771 4.29774 14.961 3.38619 14.2654 2.59097C13.5698 1.79575 12.6169 1.14212 11.4934 0.68959C10.3699 0.237058 9.11148 0 7.8328 0C6.55411 0 5.29573 0.237058 4.17224 0.68959C3.04874 1.14212 2.09582 1.79575 1.40022 2.59097C0.704627 3.38619 0.28846 4.29774 0.189611 5.24262C0.0907615 6.1875 0.31237 7.1357 0.83426 8.00088C0.368342 8.77398 0.141444 9.61449 0.170155 10.4609C0.198866 11.3074 0.482463 12.1384 1.00021 12.8932C1.51795 13.6479 2.25674 14.3074 3.16258 14.8233C4.06841 15.3393 5.11837 15.6986 6.23569 15.8752C7.353 16.0517 8.50943 16.0409 9.62039 15.8436C10.7314 15.6462 11.7688 15.2674 12.6568 14.7347C13.5448 14.202 14.2609 13.529 14.7529 12.7648C15.2448 12.0006 15.5001 11.1645 15.5 10.3178ZM0.913051 8.00088C0.912632 6.98441 1.31907 5.99069 2.08092 5.14548C2.84277 4.30027 3.9258 3.64156 5.19294 3.25272C6.46008 2.86388 7.85438 2.76238 9.19938 2.96106C10.5444 3.15975 11.7796 3.6497 12.7488 4.36889C13.718 5.08809 14.3775 6.00421 14.6439 7.00132C14.9103 7.99843 14.7717 9.03171 14.2455 9.97039C13.7193 10.9091 12.8292 11.711 11.6879 12.2746C10.5466 12.8382 9.20532 13.1382 7.83386 13.1367C5.99774 13.1346 4.23775 12.5926 2.94021 11.6297C1.64268 10.6669 0.913613 9.36175 0.913051 8.00088ZM7.83386 10.3636C7.2021 10.3636 6.58453 10.2247 6.05925 9.9646C5.53396 9.70447 5.12455 9.33472 4.88279 8.90213C4.64102 8.46954 4.57777 7.99352 4.70102 7.53428C4.82427 7.07505 5.12848 6.65321 5.5752 6.32212C6.02192 5.99102 6.59108 5.76555 7.2107 5.6742C7.83032 5.58285 8.47257 5.62973 9.05624 5.80892C9.6399 5.98811 10.1388 6.29155 10.4898 6.68087C10.8407 7.07019 11.0281 7.52791 11.0281 7.99615C11.0281 8.62403 10.6915 9.2262 10.0925 9.67018C9.49348 10.1142 8.68102 10.3636 7.83386 10.3636Z" fill="#DC2626"/>
</svg>
