<svg width="35" height="36" viewBox="0 0 35 36" fill="none" xmlns="http://www.w3.org/2000/svg">
<path d="M35 23.2151C35.0043 21.4179 34.4914 19.6406 33.4955 18.002C34.6697 16.0553 35.1684 13.9219 34.946 11.7959C34.7236 9.66991 33.7872 7.61893 32.2221 5.82969C30.657 4.04045 28.5129 2.56978 25.985 1.55158C23.4572 0.53338 20.6258 0 17.7488 0C14.8717 0 12.0404 0.53338 9.51253 1.55158C6.98466 2.56978 4.84058 4.04045 3.2755 5.82969C1.71041 7.61893 0.774032 9.66991 0.551622 11.7959C0.329211 13.9219 0.827829 16.0553 2.00208 18.002C0.953768 19.7415 0.443245 21.6326 0.507845 23.5371C0.572445 25.4416 1.21054 27.3114 2.37546 29.0096C3.54038 30.7078 5.20267 32.1916 7.2408 33.3525C9.27892 34.5134 11.6413 35.322 14.1553 35.7191C16.6693 36.1163 19.2712 36.092 21.7709 35.648C24.2705 35.204 26.6047 34.3516 28.6027 33.1531C30.6008 31.9545 32.2121 30.4402 33.3189 28.7207C34.4258 27.0013 35.0001 25.1202 35 23.2151ZM2.17936 18.002C2.17842 15.7149 3.0929 13.479 4.80707 11.5773C6.52124 9.6756 8.95805 8.19351 11.8091 7.31862C14.6602 6.44372 17.7974 6.21535 20.8236 6.66239C23.8499 7.10944 26.6292 8.21182 28.8098 9.83001C30.9904 11.4482 32.4744 13.5095 33.0738 15.753C33.6733 17.9965 33.3613 20.3213 32.1773 22.4334C30.9934 24.5454 28.9907 26.3497 26.4228 27.6178C23.8548 28.8859 20.837 29.561 17.7512 29.5575C13.6199 29.5528 9.65994 28.3333 6.74048 26.1669C3.82102 24.0004 2.18063 21.0639 2.17936 18.002ZM17.7512 23.3181C16.3297 23.3181 14.9402 23.0057 13.7583 22.4204C12.5764 21.835 11.6552 21.0031 11.1113 20.0298C10.5673 19.0565 10.425 17.9854 10.7023 16.9521C10.9796 15.9188 11.6641 14.9697 12.6692 14.2248C13.6743 13.4798 14.9549 12.9725 16.3491 12.7669C17.7432 12.5614 19.1883 12.6669 20.5015 13.0701C21.8148 13.4732 22.9372 14.156 23.727 15.032C24.5167 15.9079 24.9382 16.9378 24.9382 17.9913C24.9382 19.4041 24.181 20.759 22.8332 21.7579C21.4853 22.7569 19.6573 23.3181 17.7512 23.3181Z" fill="#DC2626"/>
</svg>
