<svg width="305" height="49" viewBox="0 0 305 49" fill="none" xmlns="http://www.w3.org/2000/svg">
<rect width="305" height="49" fill="white"/>
<path d="M44.5 30.2151C44.5043 28.4179 43.9914 26.6406 42.9955 25.002C44.1697 23.0553 44.6684 20.9219 44.446 18.7959C44.2236 16.6699 43.2872 14.6189 41.7221 12.8297C40.157 11.0404 38.0129 9.56978 35.485 8.55158C32.9572 7.53338 30.1258 7 27.2488 7C24.3717 7 21.5404 7.53338 19.0125 8.55158C16.4847 9.56978 14.3406 11.0404 12.7755 12.8297C11.2104 14.6189 10.274 16.6699 10.0516 18.7959C9.82921 20.9219 10.3278 23.0553 11.5021 25.002C10.4538 26.7415 9.94324 28.6326 10.0078 30.5371C10.0724 32.4416 10.7105 34.3114 11.8755 36.0096C13.0404 37.7078 14.7027 39.1916 16.7408 40.3525C18.7789 41.5134 21.1413 42.322 23.6553 42.7191C26.1693 43.1163 28.7712 43.092 31.2709 42.648C33.7705 42.204 36.1047 41.3516 38.1027 40.1531C40.1008 38.9545 41.7121 37.4402 42.8189 35.7207C43.9258 34.0013 44.5001 32.1202 44.5 30.2151ZM11.6794 25.002C11.6784 22.7149 12.5929 20.479 14.3071 18.5773C16.0212 16.6756 18.4581 15.1935 21.3091 14.3186C24.1602 13.4437 27.2974 13.2153 30.3236 13.6624C33.3499 14.1094 36.1292 15.2118 38.3098 16.83C40.4904 18.4482 41.9744 20.5095 42.5738 22.753C43.1733 24.9965 42.8613 27.3213 41.6773 29.4334C40.4934 31.5454 38.4907 33.3497 35.9228 34.6178C33.3548 35.8859 30.337 36.561 27.2512 36.5575C23.1199 36.5528 19.1599 35.3333 16.2405 33.1669C13.321 31.0004 11.6806 28.0639 11.6794 25.002ZM27.2512 30.3181C25.8297 30.3181 24.4402 30.0057 23.2583 29.4204C22.0764 28.835 21.1552 28.0031 20.6113 27.0298C20.0673 26.0565 19.925 24.9854 20.2023 23.9521C20.4796 22.9188 21.1641 21.9697 22.1692 21.2248C23.1743 20.4798 24.4549 19.9725 25.8491 19.7669C27.2432 19.5614 28.6883 19.6669 30.0015 20.0701C31.3148 20.4732 32.4372 21.156 33.227 22.032C34.0167 22.9079 34.4382 23.9378 34.4382 24.9913C34.4382 26.4041 33.681 27.759 32.3332 28.7579C30.9853 29.7569 29.1573 30.3181 27.2512 30.3181Z" fill="#DC2626"/>
<path d="M73.973 14.7273V38H69.723L59.598 23.3523H59.4276V38H54.5071V14.7273H58.8253L68.8707 29.3636H69.0753V14.7273H73.973ZM77.9474 38V20.5455H82.7884V38H77.9474ZM80.3793 18.2955C79.6596 18.2955 79.0421 18.0568 78.527 17.5795C78.0194 17.0947 77.7656 16.5152 77.7656 15.8409C77.7656 15.1742 78.0194 14.6023 78.527 14.125C79.0421 13.6402 79.6596 13.3977 80.3793 13.3977C81.099 13.3977 81.7126 13.6402 82.2202 14.125C82.7353 14.6023 82.9929 15.1742 82.9929 15.8409C82.9929 16.5152 82.7353 17.0947 82.2202 17.5795C81.7126 18.0568 81.099 18.2955 80.3793 18.2955ZM91.5071 27.9091V38H86.6662V14.7273H91.3707V23.625H91.5753C91.9692 22.5947 92.6056 21.7879 93.4844 21.2045C94.3632 20.6136 95.4654 20.3182 96.7912 20.3182C98.0033 20.3182 99.0601 20.5833 99.9616 21.1136C100.871 21.6364 101.575 22.3902 102.075 23.375C102.583 24.3523 102.833 25.5227 102.825 26.8864V38H97.9844V27.75C97.992 26.6742 97.7192 25.8371 97.1662 25.2386C96.6207 24.6402 95.8556 24.3409 94.8707 24.3409C94.2116 24.3409 93.6283 24.4811 93.1207 24.7614C92.6207 25.0417 92.2268 25.4508 91.9389 25.9886C91.6586 26.5189 91.5147 27.1591 91.5071 27.9091ZM114.521 38.3409C112.756 38.3409 111.23 37.9659 109.942 37.2159C108.661 36.4583 107.673 35.4053 106.976 34.0568C106.279 32.7008 105.93 31.1288 105.93 29.3409C105.93 27.5379 106.279 25.9621 106.976 24.6136C107.673 23.2576 108.661 22.2045 109.942 21.4545C111.23 20.697 112.756 20.3182 114.521 20.3182C116.286 20.3182 117.809 20.697 119.089 21.4545C120.377 22.2045 121.37 23.2576 122.067 24.6136C122.764 25.9621 123.112 27.5379 123.112 29.3409C123.112 31.1288 122.764 32.7008 122.067 34.0568C121.37 35.4053 120.377 36.4583 119.089 37.2159C117.809 37.9659 116.286 38.3409 114.521 38.3409ZM114.544 34.5909C115.347 34.5909 116.018 34.3636 116.555 33.9091C117.093 33.447 117.499 32.8182 117.771 32.0227C118.052 31.2273 118.192 30.322 118.192 29.3068C118.192 28.2917 118.052 27.3864 117.771 26.5909C117.499 25.7955 117.093 25.1667 116.555 24.7045C116.018 24.2424 115.347 24.0114 114.544 24.0114C113.733 24.0114 113.052 24.2424 112.499 24.7045C111.953 25.1667 111.54 25.7955 111.26 26.5909C110.987 27.3864 110.851 28.2917 110.851 29.3068C110.851 30.322 110.987 31.2273 111.26 32.0227C111.54 32.8182 111.953 33.447 112.499 33.9091C113.052 34.3636 113.733 34.5909 114.544 34.5909ZM131.101 27.9091V38H126.26V20.5455H130.874V23.625H131.078C131.464 22.6098 132.112 21.8068 133.021 21.2159C133.93 20.6174 135.033 20.3182 136.328 20.3182C137.54 20.3182 138.597 20.5833 139.499 21.1136C140.4 21.6439 141.101 22.4015 141.601 23.3864C142.101 24.3636 142.351 25.5303 142.351 26.8864V38H137.51V27.75C137.518 26.6818 137.245 25.8485 136.692 25.25C136.139 24.6439 135.377 24.3409 134.408 24.3409C133.756 24.3409 133.18 24.4811 132.68 24.7614C132.188 25.0417 131.802 25.4508 131.521 25.9886C131.249 26.5189 131.108 27.1591 131.101 27.9091ZM154.03 44.9091C152.462 44.9091 151.117 44.6932 149.996 44.2614C148.882 43.8371 147.996 43.2576 147.337 42.5227C146.678 41.7879 146.25 40.9621 146.053 40.0455L150.53 39.4432C150.666 39.7917 150.882 40.1174 151.178 40.4205C151.473 40.7235 151.863 40.9659 152.348 41.1477C152.84 41.3371 153.439 41.4318 154.143 41.4318C155.196 41.4318 156.064 41.1742 156.746 40.6591C157.435 40.1515 157.78 39.2992 157.78 38.1023V34.9091H157.575C157.363 35.3939 157.045 35.8523 156.621 36.2841C156.196 36.7159 155.651 37.0682 154.984 37.3409C154.318 37.6136 153.522 37.75 152.598 37.75C151.287 37.75 150.094 37.447 149.018 36.8409C147.95 36.2273 147.098 35.2917 146.462 34.0341C145.833 32.7689 145.518 31.1705 145.518 29.2386C145.518 27.2614 145.84 25.6098 146.484 24.2841C147.128 22.9583 147.984 21.9659 149.053 21.3068C150.128 20.6477 151.306 20.3182 152.587 20.3182C153.564 20.3182 154.382 20.4848 155.041 20.8182C155.7 21.1439 156.231 21.553 156.632 22.0455C157.041 22.5303 157.356 23.0076 157.575 23.4773H157.757V20.5455H162.564V38.1705C162.564 39.6553 162.2 40.8977 161.473 41.8977C160.746 42.8977 159.738 43.6477 158.45 44.1477C157.17 44.6553 155.696 44.9091 154.03 44.9091ZM154.132 34.1136C154.912 34.1136 155.571 33.9205 156.109 33.5341C156.655 33.1402 157.071 32.5795 157.359 31.8523C157.655 31.1174 157.803 30.2386 157.803 29.2159C157.803 28.1932 157.659 27.3068 157.371 26.5568C157.083 25.7992 156.666 25.2121 156.121 24.7955C155.575 24.3788 154.912 24.1705 154.132 24.1705C153.337 24.1705 152.666 24.3864 152.121 24.8182C151.575 25.2424 151.162 25.8333 150.882 26.5909C150.602 27.3485 150.462 28.2235 150.462 29.2159C150.462 30.2235 150.602 31.0947 150.882 31.8295C151.17 32.5568 151.583 33.1212 152.121 33.5227C152.666 33.9167 153.337 34.1136 154.132 34.1136ZM174.303 38.3409C172.537 38.3409 171.011 37.9659 169.723 37.2159C168.443 36.4583 167.454 35.4053 166.757 34.0568C166.06 32.7008 165.712 31.1288 165.712 29.3409C165.712 27.5379 166.06 25.9621 166.757 24.6136C167.454 23.2576 168.443 22.2045 169.723 21.4545C171.011 20.697 172.537 20.3182 174.303 20.3182C176.068 20.3182 177.59 20.697 178.871 21.4545C180.159 22.2045 181.151 23.2576 181.848 24.6136C182.545 25.9621 182.893 27.5379 182.893 29.3409C182.893 31.1288 182.545 32.7008 181.848 34.0568C181.151 35.4053 180.159 36.4583 178.871 37.2159C177.59 37.9659 176.068 38.3409 174.303 38.3409ZM174.325 34.5909C175.128 34.5909 175.799 34.3636 176.337 33.9091C176.875 33.447 177.28 32.8182 177.553 32.0227C177.833 31.2273 177.973 30.322 177.973 29.3068C177.973 28.2917 177.833 27.3864 177.553 26.5909C177.28 25.7955 176.875 25.1667 176.337 24.7045C175.799 24.2424 175.128 24.0114 174.325 24.0114C173.515 24.0114 172.833 24.2424 172.28 24.7045C171.734 25.1667 171.321 25.7955 171.041 26.5909C170.768 27.3864 170.632 28.2917 170.632 29.3068C170.632 30.322 170.768 31.2273 171.041 32.0227C171.321 32.8182 171.734 33.447 172.28 33.9091C172.833 34.3636 173.515 34.5909 174.325 34.5909ZM206.163 21.4205C206.072 20.5038 205.682 19.7917 204.993 19.2841C204.304 18.7765 203.368 18.5227 202.186 18.5227C201.383 18.5227 200.705 18.6364 200.152 18.8636C199.599 19.0833 199.175 19.3902 198.879 19.7841C198.591 20.178 198.447 20.625 198.447 21.125C198.432 21.5417 198.519 21.9053 198.709 22.2159C198.906 22.5265 199.175 22.7955 199.516 23.0227C199.857 23.2424 200.25 23.4356 200.697 23.6023C201.144 23.7614 201.622 23.8977 202.129 24.0114L204.22 24.5114C205.235 24.7386 206.167 25.0417 207.016 25.4205C207.864 25.7992 208.599 26.2652 209.22 26.8182C209.841 27.3712 210.322 28.0227 210.663 28.7727C211.012 29.5227 211.19 30.3826 211.197 31.3523C211.19 32.7765 210.826 34.0114 210.107 35.0568C209.394 36.0947 208.364 36.9015 207.016 37.4773C205.675 38.0455 204.057 38.3295 202.163 38.3295C200.285 38.3295 198.648 38.0417 197.254 37.4659C195.868 36.8902 194.785 36.0379 194.004 34.9091C193.232 33.7727 192.826 32.3674 192.788 30.6932H197.55C197.603 31.4735 197.826 32.125 198.22 32.6477C198.622 33.1629 199.156 33.553 199.822 33.8182C200.497 34.0758 201.258 34.2045 202.107 34.2045C202.94 34.2045 203.663 34.0833 204.277 33.8409C204.898 33.5985 205.379 33.2614 205.72 32.8295C206.061 32.3977 206.232 31.9015 206.232 31.3409C206.232 30.8182 206.076 30.3788 205.766 30.0227C205.463 29.6667 205.016 29.3636 204.425 29.1136C203.841 28.8636 203.125 28.6364 202.277 28.4318L199.743 27.7955C197.781 27.3182 196.232 26.572 195.095 25.5568C193.959 24.5417 193.394 23.1742 193.402 21.4545C193.394 20.0455 193.769 18.8144 194.527 17.7614C195.292 16.7083 196.341 15.8864 197.675 15.2955C199.008 14.7045 200.523 14.4091 202.22 14.4091C203.947 14.4091 205.455 14.7045 206.743 15.2955C208.038 15.8864 209.046 16.7083 209.766 17.7614C210.485 18.8144 210.857 20.0341 210.879 21.4205H206.163ZM223.7 20.5455V24.1818H213.189V20.5455H223.7ZM215.575 16.3636H220.416V32.6364C220.416 33.0833 220.484 33.4318 220.621 33.6818C220.757 33.9242 220.946 34.0947 221.189 34.1932C221.439 34.2917 221.727 34.3409 222.053 34.3409C222.28 34.3409 222.507 34.322 222.734 34.2841C222.962 34.2386 223.136 34.2045 223.257 34.1818L224.018 37.7841C223.776 37.8598 223.435 37.947 222.996 38.0455C222.556 38.1515 222.022 38.2159 221.393 38.2386C220.227 38.2841 219.204 38.1288 218.325 37.7727C217.454 37.4167 216.776 36.8636 216.291 36.1136C215.806 35.3636 215.568 34.4167 215.575 33.2727V16.3636ZM238.047 30.5682V20.5455H242.888V38H238.24V34.8295H238.058C237.664 35.8523 237.009 36.6742 236.092 37.2955C235.183 37.9167 234.073 38.2273 232.763 38.2273C231.596 38.2273 230.57 37.9621 229.683 37.4318C228.797 36.9015 228.104 36.1477 227.604 35.1705C227.111 34.1932 226.861 33.0227 226.854 31.6591V20.5455H231.695V30.7955C231.702 31.8258 231.979 32.6402 232.524 33.2386C233.07 33.8371 233.801 34.1364 234.717 34.1364C235.301 34.1364 235.846 34.0038 236.354 33.7386C236.861 33.4659 237.27 33.0644 237.581 32.5341C237.899 32.0038 238.054 31.3485 238.047 30.5682ZM253.192 38.2841C251.866 38.2841 250.665 37.9432 249.589 37.2614C248.521 36.572 247.673 35.5606 247.044 34.2273C246.423 32.8864 246.112 31.2424 246.112 29.2955C246.112 27.2955 246.434 25.6326 247.078 24.3068C247.722 22.9735 248.578 21.9773 249.646 21.3182C250.722 20.6515 251.9 20.3182 253.18 20.3182C254.158 20.3182 254.972 20.4848 255.624 20.8182C256.283 21.1439 256.813 21.553 257.214 22.0455C257.624 22.5303 257.934 23.0076 258.146 23.4773H258.294V14.7273H263.124V38H258.351V35.2045H258.146C257.919 35.6894 257.597 36.1705 257.18 36.6477C256.771 37.1174 256.237 37.5076 255.578 37.8182C254.927 38.1288 254.131 38.2841 253.192 38.2841ZM254.726 34.4318C255.506 34.4318 256.165 34.2197 256.703 33.7955C257.249 33.3636 257.665 32.7614 257.953 31.9886C258.249 31.2159 258.396 30.3106 258.396 29.2727C258.396 28.2348 258.252 27.3333 257.964 26.5682C257.677 25.803 257.26 25.2121 256.714 24.7955C256.169 24.3788 255.506 24.1705 254.726 24.1705C253.93 24.1705 253.26 24.3864 252.714 24.8182C252.169 25.25 251.756 25.8485 251.476 26.6136C251.196 27.3788 251.055 28.2652 251.055 29.2727C251.055 30.2879 251.196 31.1856 251.476 31.9659C251.764 32.7386 252.177 33.3447 252.714 33.7841C253.26 34.2159 253.93 34.4318 254.726 34.4318ZM267.104 38V20.5455H271.945V38H267.104ZM269.536 18.2955C268.816 18.2955 268.198 18.0568 267.683 17.5795C267.176 17.0947 266.922 16.5152 266.922 15.8409C266.922 15.1742 267.176 14.6023 267.683 14.125C268.198 13.6402 268.816 13.3977 269.536 13.3977C270.255 13.3977 270.869 13.6402 271.376 14.125C271.892 14.6023 272.149 15.1742 272.149 15.8409C272.149 16.5152 271.892 17.0947 271.376 17.5795C270.869 18.0568 270.255 18.2955 269.536 18.2955ZM283.709 38.3409C281.944 38.3409 280.417 37.9659 279.129 37.2159C277.849 36.4583 276.86 35.4053 276.163 34.0568C275.466 32.7008 275.118 31.1288 275.118 29.3409C275.118 27.5379 275.466 25.9621 276.163 24.6136C276.86 23.2576 277.849 22.2045 279.129 21.4545C280.417 20.697 281.944 20.3182 283.709 20.3182C285.474 20.3182 286.997 20.697 288.277 21.4545C289.565 22.2045 290.557 23.2576 291.254 24.6136C291.951 25.9621 292.3 27.5379 292.3 29.3409C292.3 31.1288 291.951 32.7008 291.254 34.0568C290.557 35.4053 289.565 36.4583 288.277 37.2159C286.997 37.9659 285.474 38.3409 283.709 38.3409ZM283.732 34.5909C284.535 34.5909 285.205 34.3636 285.743 33.9091C286.281 33.447 286.686 32.8182 286.959 32.0227C287.239 31.2273 287.379 30.322 287.379 29.3068C287.379 28.2917 287.239 27.3864 286.959 26.5909C286.686 25.7955 286.281 25.1667 285.743 24.7045C285.205 24.2424 284.535 24.0114 283.732 24.0114C282.921 24.0114 282.239 24.2424 281.686 24.7045C281.141 25.1667 280.728 25.7955 280.447 26.5909C280.175 27.3864 280.038 28.2917 280.038 29.3068C280.038 30.322 280.175 31.2273 280.447 32.0227C280.728 32.8182 281.141 33.447 281.686 33.9091C282.239 34.3636 282.921 34.5909 283.732 34.5909Z" fill="black"/>
</svg>
